<?xml version="1.0" encoding="utf-8"?>
<!-- Generator: Adobe Illustrator 19.2.1, SVG Export Plug-In . SVG Version: 6.00 Build 0)  -->
<svg version="1.1" id="layer" xmlns="http://www.w3.org/2000/svg" xmlns:xlink="http://www.w3.org/1999/xlink" x="0px" y="0px"
	 viewBox="0 0 652 652" style="enable-background:new 0 0 652 652;" xml:space="preserve">
<style type="text/css">
	.st0{fill:#26313D;}
	.st1{fill:#F8B71D;}
	.st2{fill:#407DB8;}
	.st3{fill:url(#SVGID_1_);}
	.st4{clip-path:url(#SVGID_3_);}
	.st5{fill:#162331;}
	.st6{fill:#5592C8;}
	.st7{fill:#88BCE8;}
</style>
<g>
	<g id="m:_Stroked_in_Illustrator_1.2_center_9_">
		<g>
			<path class="st0" d="M294.6,264.3c-12.9,0-23.3,5.2-31.7,15.9c-5.7-10.2-15.7-15.9-28.4-15.9c-14,0-22.3,7.3-27.9,14.4v-12.5H183
				v94.6h23.6v-52.5c0-13.7,7.6-22.5,19.3-22.5c11.6,0,18.2,8,18.2,22v53h23.6v-52.5c0-13.9,7.4-22.5,19.3-22.5
				c11.7,0,18.2,7.9,18.2,22.1v52.8h23.6v-59.5C328.7,278.1,316,264.3,294.6,264.3z"/>
		</g>
	</g>
	<g id="Lab_9_">
		<g>
			<path class="st1" d="M375.5,233.7h-23.4v127.2h68.4v-23h-45.1V233.7z M607.4,278.4c-8.6-9.3-19-13.9-31.3-13.9
				c-5.6,0-10.9,1.1-15.9,3.2c-4.9,2.1-9.6,5.3-13.8,9.6v-41.6H523v125.1h23.4v-9.9c4.6,4.4,9.2,7.5,13.9,9.4
				c4.7,1.9,9.7,2.9,15.1,2.9c12.1,0,22.7-4.7,31.5-14.1c8.9-9.4,13.3-21.1,13.3-35.1C620.3,299.5,616,287.7,607.4,278.4z
				 M589.4,333.8c-4.9,5.2-11,7.8-18.2,7.8c-7.4,0-13.6-2.6-18.5-7.7c-4.9-5.1-7.3-11.9-7.3-20.2c0-8.2,2.4-14.8,7.3-19.8
				c4.9-5.1,11-7.6,18.5-7.6c7.4,0,13.5,2.6,18.3,7.7c4.8,5.1,7.3,11.7,7.3,19.8C596.8,321.9,594.3,328.6,589.4,333.8z M503.5,275
				c-6.8-6.9-18.4-10.8-32.9-10.8c-15.4,0-25.8,3.1-36.5,7.9l5.8,17.3c8.8-3.7,16.9-5.8,27.8-5.8c15.6,0,24,6.5,24,20.3v0.8
				c-7.5-2.4-15.2-3.9-26-3.9c-23.6,0-40.1,10.3-40.1,31.1v1.2c0,19.4,16.3,30.2,34.4,30.2c14.8,0,24.9-4.5,31.5-12.4v10h23.4v-56
				C514.9,289.8,510.6,281.9,503.5,275z M492,324.3c0,10.1-10.8,21.8-25.1,21.8c-10.3,0-17.8-5.1-17.8-14.2v-0.4
				c0-9.8,7.7-15.7,21.6-15.7c8.5,0,15.8,1.6,21.3,3.7L492,324.3L492,324.3z"/>
		</g>
	</g>
</g>
<g>
	<g>
		<path class="st2" d="M100.7,424.3l0-6.1h10.4l0,6.1c0,2.9-2.3,5.2-5.2,5.2C103.1,429.5,100.7,427.2,100.7,424.3z"/>
		<path class="st2" d="M71.9,424.3l0-6.1h10.4l0,6.1c0,2.9-2.3,5.2-5.2,5.2C74.2,429.5,71.9,427.2,71.9,424.3z"/>
		<path class="st2" d="M43,424.3l0-6.1h10.4l0,6.1c0,2.9-2.3,5.2-5.2,5.2C45.3,429.5,43,427.2,43,424.3z"/>
	</g>
	<path class="st2" d="M121.1,411.7l-4.8,8h-79l-4.4-8H121.1z"/>
	
		<linearGradient id="SVGID_1_" gradientUnits="userSpaceOnUse" x1="24.4601" y1="362.4629" x2="129.7257" y2="362.4629" gradientTransform="matrix(1 0 0 -1 0 651.89)">
		<stop  offset="0" style="stop-color:#F9AC1A"/>
		<stop  offset="1" style="stop-color:#F9C51A"/>
	</linearGradient>
	<path class="st3" d="M24.5,363.2v-91.9h0c0.2-25.2,20.5-46,46.7-48.7c1.4-0.3,2.4-1.2,2.8-1.9c0.8-1.5,1.6-3.1,2.1-4.4
		c0.3-0.8,1.8-1,2.2,0c0.5,1.3,1.4,2.9,2.1,4.4c0.4,0.7,1.2,1.6,2.7,1.9c26.1,2.8,46.5,23.5,46.6,48.7h0v91.9H24.5z"/>
	<g>
		<g>
			<defs>
				<path id="SVGID_2_" d="M24.5,363.2v-91.9h0c0.2-25.2,20.5-46,46.7-48.7c1.4-0.3,2.4-1.2,2.8-1.9c0.8-1.5,1.6-3.1,2.1-4.4
					c0.3-0.8,1.8-1,2.2,0c0.5,1.3,1.4,2.9,2.1,4.4c0.4,0.7,1.2,1.6,2.7,1.9c26.1,2.8,46.5,23.5,46.6,48.7h0v91.9H24.5z"/>
			</defs>
			<clipPath id="SVGID_3_">
				<use xlink:href="#SVGID_2_"  style="overflow:visible;"/>
			</clipPath>
			<g class="st4">
				<path class="st5" d="M109.2,329.9c-6.4,0-8.3,2.5-8.3,7.1c0,7.9,9.7,17.2,9.7,31.6c0,10.5-6.2,19.3-19.8,19.3h-6.3v-12.9h2.8
					c5,0,6.7-2.9,6.7-7.6c0-10.6-5.9-20.4-5.9-28.4c0-8.2,2.7-11.9,12.4-14c-9.7-2.1-12.4-8.4-12.4-16.6c0-7.9,5.9-14.4,5.9-25.2
					c0-4.7-2.4-8.5-8.3-8.5c-2.2,0-3.9,0-5.6,0v-9.9c14.6-7.5,26.8,5.8,26.8,15.7c0,14.3-6,25.4-6,33.3c0,4.5,2,6.5,8.3,6.5h4.3v9.6
					L109.2,329.9L109.2,329.9z M74,274.8c-1.5,0-3.1,0-5.1,0c-5.8,0-8.3,3.8-8.3,8.5c0,10.8,5.9,17.3,5.9,25.2
					c0,8.2-3.2,14.5-12.9,16.6c9.7,2.1,12.9,5.9,12.9,14c0,8-5.9,17.7-5.9,28.4c0,4.7,1.7,7.6,6.7,7.6h2.8v12.9h-6.4
					c-13.6,0-19.8-8.8-19.8-19.3c0-14.4,9.7-23.8,9.7-31.6c0-4.6-1.6-7.1-8-7.1h-5.2v-9.6h5.2c6.4,0,8-2,8-6.5c0-7.9-6-18.9-6-33.3
					c0-9.8,11.8-22.9,26.3-15.9L74,274.8L74,274.8z"/>
			</g>
		</g>
	</g>
	<path class="st6" d="M128.3,369.3c-0.6,1.6-0.8,3.5-0.9,5.1c0,0,0,0.1,0,0.1v33c0,2.9-2.3,5.2-5.2,5.2H31.9c-2.9,0-5.2-2.3-5.2-5.2
		v-33c0,0,0-0.1,0-0.1c-0.1-1.6-0.3-3.5-0.9-5.1c-1.3-3.7-5.6-5.2-5.6-5.2l0.3-2h113l0.3,2C133.9,364.1,129.6,365.6,128.3,369.3z"/>
	<path class="st7" d="M127.4,387.8H92.3c-2.2,0-4-1.8-4-4c0-2.2,1.8-4,4-4h35.1V387.8z"/>
	<path class="st7" d="M26.7,379.8h35.1c2.2,0,4,1.8,4,4c0,2.2-1.8,4-4,4H26.7V379.8z"/>
</g>
<g>
	<path class="st0" d="M202.5,404.6h-10.7l-2.6,7.8h-5.7l10.7-30.3h5.8l10.7,30.3h-5.7L202.5,404.6z M197.2,387.3c0,0-0.7,3-1.3,4.7
		l-2.7,8.1h8l-2.7-8.1C197.9,390.3,197.2,387.3,197.2,387.3L197.2,387.3z"/>
	<path class="st0" d="M226.6,382h5.9l5.9,15c0.7,1.8,1.5,4.4,1.5,4.4h0.1c0,0,0.8-2.6,1.5-4.4l5.9-15h5.9l2.4,30.3h-5.5l-1.3-17
		c-0.1-2-0.1-4.7-0.1-4.7h-0.1c0,0-0.9,3-1.6,4.7l-4.9,11.7h-4.8l-4.9-11.7c-0.7-1.7-1.7-4.8-1.7-4.8h-0.1c0,0,0.1,2.7-0.1,4.8
		l-1.3,17h-5.5L226.6,382z"/>
	<path class="st0" d="M271.2,390.1c6.7,0,12,4.8,12,11.4c0,6.7-5.3,11.4-12,11.4c-6.7,0-12-4.7-12-11.4
		C259.2,394.8,264.5,390.1,271.2,390.1z M271.2,408.3c3.5,0,6.5-2.7,6.5-6.8c0-4-3-6.8-6.5-6.8c-3.5,0-6.5,2.8-6.5,6.8
		C264.7,405.5,267.7,408.3,271.2,408.3z"/>
	<path class="st0" d="M287.5,390.6h5.2v2.5c0,0.8-0.1,1.5-0.1,1.5h0.1c0.9-1.8,3.3-4.5,7.7-4.5c4.8,0,7.6,2.5,7.6,8.3v14h-5.4v-12.9
		c0-2.6-0.7-4.4-3.5-4.4c-2.9,0-5,1.8-5.8,4.4c-0.3,0.9-0.4,1.9-0.4,2.9v10h-5.4L287.5,390.6L287.5,390.6z"/>
	<path class="st0" d="M322,416.7c3.3,0,6.2-1.4,6.2-5.3v-1.3c0-0.5,0.1-1.2,0.1-1.2h-0.1c-1.3,1.9-3.1,3-6.1,3c-6.2,0-9.8-5-9.8-11
		s3.4-10.8,9.7-10.8c4.8,0,6.5,2.8,6.5,2.8h0.1c0,0-0.1-0.3-0.1-0.6v-1.7h5.1v20.5c0,7.5-5.8,10.3-11.5,10.3c-2.7,0-5.6-0.8-7.7-1.9
		l1.6-4.1C315.9,415.3,318.7,416.7,322,416.7z M328.3,401c0-4.9-2.4-6.3-5.4-6.3c-3.3,0-5.1,2.4-5.1,6.1c0,3.8,2,6.6,5.5,6.6
		C325.8,407.4,328.3,405.9,328.3,401z"/>
	<path class="st0" d="M349,390.1c6.7,0,12,4.8,12,11.4c0,6.7-5.3,11.4-12,11.4c-6.7,0-12-4.7-12-11.4
		C337.1,394.8,342.4,390.1,349,390.1z M349.1,408.3c3.5,0,6.5-2.7,6.5-6.8c0-4-3-6.8-6.5-6.8c-3.5,0-6.5,2.8-6.5,6.8
		C342.6,405.5,345.5,408.3,349.1,408.3z"/>
	<path class="st0" d="M365.4,382h10.3c9.4,0,15.5,5.6,15.5,15.1s-6.1,15.2-15.5,15.2h-10.3V382z M375.4,407.6
		c6.2,0,10.1-3.6,10.1-10.5c0-6.7-4-10.4-10.1-10.4h-4.5v20.9L375.4,407.6L375.4,407.6z"/>
	<path class="st0" d="M395.2,382h10.8c5.5,0,9.4,2.8,9.4,7.8c0,2.8-1.4,5.3-3.7,6.5v0.1c3.3,1,4.9,4,4.9,7.1c0,6.1-4.9,8.8-10.5,8.8
		h-11L395.2,382L395.2,382z M406.1,394.4c2.4,0,3.8-1.7,3.8-3.9c0-2.2-1.3-3.8-3.9-3.8h-5.3v7.6H406.1z M406.6,407.6
		c2.8,0,4.4-1.8,4.4-4.4c0-2.5-1.6-4.4-4.4-4.4h-5.9v8.8H406.6z"/>
	<path class="st0" d="M446.5,381.5c7.4,0,11.2,4.1,11.2,4.1l-2.6,4.1c0,0-3.5-3.2-8.3-3.2c-6.4,0-10.2,4.8-10.2,10.4
		c0,5.8,3.9,10.8,10.2,10.8c5.3,0,8.8-3.9,8.8-3.9l2.9,4c0,0-4.2,4.9-11.9,4.9c-9.3,0-15.7-6.9-15.7-15.8
		C430.9,388.3,437.6,381.5,446.5,381.5z"/>
	<path class="st0" d="M473.1,390.1c6.7,0,12,4.8,12,11.4c0,6.7-5.3,11.4-12,11.4c-6.7,0-12-4.7-12-11.4
		C461.2,394.8,466.5,390.1,473.1,390.1z M473.2,408.3c3.5,0,6.5-2.7,6.5-6.8c0-4-3-6.8-6.5-6.8c-3.5,0-6.5,2.8-6.5,6.8
		C466.7,405.5,469.6,408.3,473.2,408.3z"/>
	<path class="st0" d="M488.6,390.6h5.2v2.5c0,0.8-0.1,1.5-0.1,1.5h0.1c1.1-2.1,3.7-4.5,7.1-4.5c3.3,0,5.5,1.5,6.4,4.5h0.1
		c1.2-2.4,4-4.5,7.4-4.5c4.5,0,7.1,2.6,7.1,8.3v14h-5.4v-13c0-2.5-0.5-4.4-3-4.4c-2.8,0-4.6,2.2-5.3,4.9c-0.2,0.8-0.3,1.8-0.3,2.8
		v9.6h-5.4v-13c0-2.4-0.4-4.4-3-4.4c-2.8,0-4.7,2.2-5.3,5c-0.2,0.8-0.3,1.8-0.3,2.8v9.6h-5.4L488.6,390.6L488.6,390.6z"/>
	<path class="st0" d="M526.8,390.6h4.9v1.6c0,0.8-0.1,1.5-0.1,1.5h0.1c0,0,1.9-3.6,7-3.6c5.9,0,9.7,4.7,9.7,11.4
		c0,6.9-4.2,11.4-10,11.4c-4.3,0-6.2-3-6.2-3h-0.1c0,0,0.1,0.8,0.1,1.9v9.1h-5.4V390.6z M537.4,408.3c3,0,5.5-2.4,5.5-6.7
		c0-4.1-2.2-6.8-5.4-6.8c-2.8,0-5.5,2.1-5.5,6.9C532,405,533.9,408.3,537.4,408.3z"/>
	<path class="st0" d="M563.9,398.7h0.7v-0.3c0-2.9-1.8-3.9-4.2-3.9c-3.1,0-6,2.1-6,2.1l-2.1-3.9c0,0,3.4-2.7,8.5-2.7
		c5.7,0,9.1,3.2,9.1,8.7v13.6h-5v-1.8c0-0.8,0.1-1.5,0.1-1.5H565c0.1,0-1.7,3.9-6.6,3.9c-3.9,0-7.4-2.4-7.4-6.8
		C551,399.2,560.4,398.7,563.9,398.7z M559.8,408.7c2.9,0,4.9-3.1,4.9-5.7v-0.5h-0.9c-2.8,0-7.3,0.4-7.3,3.4
		C556.5,407.3,557.6,408.7,559.8,408.7z"/>
	<path class="st0" d="M574.8,390.6h5.2v2.5c0,0.8-0.1,1.5-0.1,1.5h0.1c0.9-1.8,3.3-4.5,7.7-4.5c4.8,0,7.6,2.5,7.6,8.3v14h-5.4v-12.9
		c0-2.6-0.7-4.4-3.5-4.4c-2.9,0-5,1.8-5.8,4.4c-0.3,0.9-0.4,1.9-0.4,2.9v10h-5.4L574.8,390.6L574.8,390.6z"/>
	<path class="st0" d="M599.9,415.9c0,0,1.2,0.9,2.4,0.9c1.5,0,3-0.9,3.8-2.8l0.8-1.9l-9.2-21.4h6.1l4.6,12.6c0.4,1.2,0.8,3,0.8,3
		h0.1c0,0,0.3-1.7,0.7-2.9l4.3-12.6h5.9l-9.8,25.1c-1.5,4-4.6,5.7-7.9,5.7c-2.6,0-4.5-1.4-4.5-1.4L599.9,415.9z"/>
</g>
</svg>
