<svg height="512pt" viewBox="0 -19 512 511" width="512pt" xmlns="http://www.w3.org/2000/svg"><path d="m178.949219 318.972656h154.101562v106.898438h-154.101562zm0 0" fill="#889cb0"/><path d="m178.949219 318.972656v59.671875c18.289062.195313 43.558593-.808593 65.609375-6.222656 40.132812-9.855469 88.492187-6.804687 88.492187-6.804687v-46.644532zm0 0" fill="#6a829a"/><path d="m454.933594 343.960938h-397.867188c-27.375 0-49.566406-22.191407-49.566406-49.566407v-236.828125c0-27.375 22.191406-49.566406 49.566406-49.566406h397.867188c27.375 0 49.566406 22.191406 49.566406 49.566406v236.828125c0 27.375-22.191406 49.566407-49.566406 49.566407zm0 0" fill="#a7b6c5"/><path d="m117.988281 294.394531v-236.828125c0-27.375 22.191407-49.566406 49.566407-49.566406h-110.488282c-27.375 0-49.566406 22.191406-49.566406 49.566406v236.828125c0 27.375 22.191406 49.566407 49.566406 49.566407h110.488282c-27.375 0-49.566407-22.191407-49.566407-49.566407zm0 0" fill="#889cb0"/><path d="m345.550781 466.128906h-179.101562c-16.867188 0-30.539063-13.675781-30.539063-30.542968 0-16.867188 13.671875-30.539063 30.539063-30.539063h179.101562c16.867188 0 30.539063 13.671875 30.539063 30.539063 0 16.867187-13.671875 30.542968-30.539063 30.542968zm0 0" fill="#a7b6c5"/><path d="m454.933594 8h-397.867188c-27.375 0-49.566406 22.191406-49.566406 49.566406v215.59375h497v-215.59375c0-27.375-22.191406-49.566406-49.566406-49.566406zm0 0" fill="#516980"/><path d="m167.554688 8h-110.488282c-27.375 0-49.566406 22.191406-49.566406 49.566406v215.59375h110.488281v-215.59375c0-27.375 22.191407-49.566406 49.566407-49.566406zm0 0" fill="#3e4f61"/><path d="m463.792969 273.160156v-215.59375c0-4.882812-3.972657-8.859375-8.859375-8.859375h-397.867188c-4.886718 0-8.859375 3.976563-8.859375 8.859375v215.59375zm0 0" fill="#81d9e7"/><path d="m118.777344 48.707031h-61.710938c-4.886718 0-8.859375 3.976563-8.859375 8.859375v215.59375h69.78125v-215.59375c0-3.027344.269531-5.980468.789063-8.859375zm0 0" fill="#3ccbde"/><path d="m126.714844 168.699219-78.507813 49.296875v55.164062h241.1875l-99.296875-97.589844c-16.984375-16.691406-43.210937-19.535156-63.382812-6.871093zm0 0" fill="#00a62c"/><path d="m48.207031 217.996094v55.164062h69.78125v-98.980468zm0 0" fill="#008c1c"/><path d="m463.792969 273.160156v-65.207031l-65.121094-56.769531c-21.394531-18.648438-52.824219-20.066406-75.808594-3.417969l-173.128906 125.394531zm0 0" fill="#29ce69"/><path d="m266.890625 118.246094c0 12.335937-9.996094 22.332031-22.332031 22.332031-12.332032 0-22.332032-9.996094-22.332032-22.332031 0-12.332032 10-22.332032 22.332032-22.332032 12.335937 0 22.332031 10 22.332031 22.332032zm0 0" fill="#f4e74d"/><path d="m454.933594.5h-397.867188c-31.464844 0-57.066406 25.601562-57.066406 57.066406v236.832032c0 31.464843 25.601562 57.0625 57.066406 57.0625h114.382813v46.085937s-43.039063-2.605469-43.039063 38.042969c0 20.976562 17.0625 38.039062 38.039063 38.039062h179.101562c20.976563 0 38.039063-17.066406 38.039063-38.039062 0-40.230469-43.039063-38.042969-43.039063-38.042969v-46.085937h57.917969c4.140625 0 7.5-3.355469 7.5-7.5 0-4.140626-3.359375-7.5-7.5-7.5h-341.402344c-23.195312 0-42.066406-18.871094-42.066406-42.066407v-13.734375h482v13.734375c0 23.195313-18.871094 42.066407-42.066406 42.066407h-26.832032c-4.140624 0-7.5 3.359374-7.5 7.5 0 4.140624 3.359376 7.5 7.5 7.5h26.832032c31.46875 0 57.066406-25.601563 57.066406-57.066407v-236.828125c0-31.464844-25.601562-57.066406-57.066406-57.066406zm-86.34375 435.085938c0 12.707031-10.335938 23.042968-23.039063 23.042968h-179.101562c-12.703125 0-23.039063-10.335937-23.039063-23.042968 0-12.703126 10.335938-23.039063 23.039063-23.039063h179.101562c12.703125 0 23.039063 10.335937 23.039063 23.039063zm-43.039063-38.039063h-139.101562v-46.085937h139.101562zm-269.84375-175.402344 74.996094-47.09375c17.304687-10.863281 39.566406-8.449219 54.140625 5.871094l33.710938 33.132813-71.25 51.605468h-91.597657zm117.167969 43.515625 154.386719-111.820312c20.273437-14.683594 47.609375-13.453125 66.480469 2.996094l62.550781 54.527343v54.296875zm298.417969 0v-208.09375c0-9.019531-7.339844-16.359375-16.359375-16.359375h-270.449219c-4.144531 0-7.5 3.359375-7.5 7.5 0 4.144531 3.355469 7.5 7.5 7.5h270.449219c.738281 0 1.359375.621094 1.359375 1.359375v133.898438l-52.691407-45.933594c-24.164062-21.066406-59.171874-22.644531-85.136718-3.839844l-87.589844 63.441406-35.519531-34.910156c-19.546875-19.210937-49.414063-22.449218-72.628907-7.875l-67.019531 42.085938v-146.867188c0-.738281.621094-1.359375 1.359375-1.359375h97.125c4.140625 0 7.5-3.355469 7.5-7.5 0-4.140625-3.359375-7.5-7.5-7.5h-97.125c-9.019531 0-16.359375 7.339844-16.359375 16.359375v208.09375h-25.707031v-208.09375c0-23.195312 18.871094-42.066406 42.066406-42.066406h397.867188c23.195312 0 42.066406 18.871094 42.066406 42.066406v208.09375zm0 0"/><path d="m244.558594 148.078125c16.453125 0 29.832031-13.382813 29.832031-29.832031 0-16.449219-13.382813-29.832032-29.832031-29.832032-16.449219 0-29.832032 13.382813-29.832032 29.832032 0 16.449218 13.382813 29.832031 29.832032 29.832031zm0-44.664063c8.179687 0 14.832031 6.65625 14.832031 14.835938 0 8.175781-6.652344 14.832031-14.832031 14.832031-8.175782 0-14.832032-6.65625-14.832032-14.832031 0-8.179688 6.65625-14.835938 14.832032-14.835938zm0 0"/></svg>