<svg height="512pt" viewBox="0 -4 512.001 512" width="512pt" xmlns="http://www.w3.org/2000/svg"><path d="m259.199219 496.464844c-34.910157 0-63.210938-28.296875-63.210938-63.207032v-51.402343h126.421875v51.402343c0 34.910157-28.300781 63.207032-63.210937 63.207032zm0 0" fill="#6a829a"/><path d="m322.410156 433.257812v-51.402343h-126.421875v51.402343c0 31.042969 22.394531 56.863282 51.902344 62.199219-2-17.457031 9.574219-35.046875 28.519531-38.625 20.832032-3.9375 40.996094-11.796875 45.199219-13.484375.527344-3.289062.800781-6.652344.800781-10.089844zm0 0" fill="#516980"/><path d="m402.539062 159.011719c0-79.417969-64.589843-143.75-144.105468-143.335938-79.144532.414063-142.570313 64.191407-142.570313 143.335938 0 40.707031 16.96875 77.449219 44.21875 103.542969 21.746094 20.820312 33.609375 49.917968 33.609375 80.027343v39.273438h131.019532v-38.378907c0-30.558593 12.007812-60.082031 34-81.300781 27.019531-26.066406 43.828124-62.652343 43.828124-103.164062zm0 0" fill="#f9ee80"/><path d="m324.710938 381.855469v-38.378907c0-16.699218 3.585937-33.089843 10.425781-47.984374-32.039063-10.515626-67.785157-16.574219-109.617188-36.585938-66.023437-31.578125-90.097656-111.574219-98.527343-155.574219-7.171876 17.101563-11.128907 35.914063-11.128907 55.679688 0 40.707031 16.96875 77.449219 44.21875 103.542969 21.746094 20.820312 33.609375 49.917968 33.609375 80.027343v39.273438zm0 0" fill="#eedb00"/><path d="m303.195312 363.972656h-87.988281v-186.523437c0-10.835938 3.226563-21.425781 9.269531-30.417969l17.28125-25.71875c8.324219-12.394531 26.558594-12.394531 34.886719 0l17.28125 25.71875c6.042969 8.996094 9.269531 19.582031 9.269531 30.417969zm0 0" fill="#f2ad9a"/><path d="m303.195312 177.449219c0-3.625-.371093-7.21875-1.078124-10.734375l-14.339844 11.023437c-3.753906 2.886719-8.976563 2.886719-12.726563 0l-10.375-7.976562c-3.230469-2.480469-7.726562-2.480469-10.957031 0l-10.371094 7.976562c-3.75 2.882813-8.976562 2.882813-12.730468 0l-14.335938-11.023437c-.707031 3.515625-1.074219 7.109375-1.074219 10.734375v186.523437h87.988281zm0 0" fill="#73da8c"/><path d="m227.519531 259.835938c-4.277343-2.046876-8.378906-4.011719-12.3125-6.441407v110.578125h87.988281v-77.800781c-23.023437-6.351563-48.023437-13.113281-75.675781-26.335937zm0 0" fill="#29ce69"/><path d="m275.050781 177.738281-10.375-7.976562c-3.230469-2.480469-7.726562-2.480469-10.957031 0l-10.371094 7.976562c-1.199218.921875-2.550781 1.546875-3.953125 1.878907v184.355468h39.613281v-184.355468c-1.40625-.332032-2.757812-.957032-3.957031-1.878907zm0 0" fill="#516980"/><path d="m239.394531 265.152344v98.820312h39.613281v-84.65625c-12.589843-3.859375-25.761718-8.207031-39.613281-14.164062zm0 0" fill="#3e4f61"/><path d="m285.242188 134.109375-8.597657-12.796875c-8.328125-12.394531-26.5625-12.394531-34.890625 0l-8.597656 12.796875c7.390625 3.429687 16.359375 5.445313 26.042969 5.445313 9.683593 0 18.65625-2.015626 26.042969-5.445313zm0 0" fill="#516980"/><path d="m325.632812 430.476562h-136.234374c-16.035157 0-29.035157-12.996093-29.035157-29.03125 0-16.035156 13-29.035156 29.035157-29.035156h136.234374c16.03125 0 29.03125 13 29.03125 29.035156 0 16.035157-13 29.03125-29.03125 29.03125zm0 0" fill="#889cb0"/><path d="m189.398438 372.414062c-16.035157 0-29.035157 12.996094-29.035157 29.03125 0 16.035157 13 29.03125 29.035157 29.03125h21.933593c1.011719-9.515624 6.527344-23.453124 30.152344-23.453124 35.871094 0 61.710937-25.167969 61.710937-25.167969v-9.441407zm0 0" fill="#6a829a"/><path d="m325.632812 381.855469h-136.234374c-16.035157 0-29.035157-13-29.035157-29.035157 0-16.03125 13-29.03125 29.035157-29.03125h136.234374c16.03125 0 29.03125 12.996094 29.03125 29.03125 0 16.035157-13 29.035157-29.03125 29.035157zm0 0" fill="#a7b6c5"/><path d="m212.453125 352.820312c0-16.03125 12.996094-29.03125 29.03125-29.03125h-52.085937c-16.035157 0-29.035157 12.996094-29.035157 29.03125 0 16.035157 13 29.035157 29.035157 29.035157h52.085937c-16.035156 0-29.03125-13-29.03125-29.035157zm0 0" fill="#889cb0"/><path d="m104.957031 17.792969 7.335938 13.414062c7.316406 13.375 18.3125 24.375 31.691406 31.691407l13.410156 7.335937c13.726563 7.507813 13.726563 27.21875 0 34.722656l-13.410156 7.335938c-13.378906 7.316406-24.375 18.316406-31.691406 31.691406l-7.335938 13.414063c-7.507812 13.722656-27.21875 13.722656-34.726562 0l-7.332031-13.414063c-7.316407-13.375-18.316407-24.375-31.695313-31.691406l-13.410156-7.335938c-13.722657-7.503906-13.722657-27.21875 0-34.722656l13.410156-7.335937c13.378906-7.316407 24.378906-18.316407 31.695313-31.691407l7.332031-13.414062c7.507812-13.722657 27.21875-13.722657 34.726562 0zm0 0" fill="#b5e9f1"/><path d="m464.78125 263.074219 4.644531 8.492187c4.632813 8.46875 11.597657 15.433594 20.066407 20.066406l8.492187 4.644532c8.6875 4.75 8.6875 17.230468 0 21.984375l-8.492187 4.644531c-8.46875 4.628906-15.433594 11.59375-20.066407 20.0625l-4.644531 8.492188c-4.75 8.691406-17.230469 8.691406-21.984375 0l-4.640625-8.492188c-4.632812-8.46875-11.597656-15.433594-20.066406-20.0625l-8.492188-4.644531c-8.6875-4.753907-8.6875-17.234375 0-21.984375l8.492188-4.644532c8.46875-4.632812 15.433594-11.597656 20.066406-20.066406l4.640625-8.492187c4.753906-8.6875 17.234375-8.6875 21.984375 0zm0 0" fill="#81d9e7"/><path d="m370.183594 56.863281c-2.804688-3.046875-7.550782-3.242187-10.597656-.4375-3.046876 2.804688-3.242188 7.550781-.4375 10.597657 23.144531 25.128906 35.886718 57.800781 35.886718 91.988281 0 37.207031-14.75 71.929687-41.535156 97.769531-16.695312 16.109375-28.097656 36.582031-33.25 59.507812h-9.558594v-138.839843c0-12.371094-3.644531-24.332031-10.542968-34.601563l-17.28125-25.71875c-5.304688-7.894531-14.152344-12.613281-23.667969-12.613281s-18.363281 4.71875-23.667969 12.613281l-17.28125 25.71875c-6.898438 10.269532-10.542969 22.230469-10.542969 34.601563v138.839843h-9.417969c-5.042968-22.621093-16.609374-43.441406-33.019531-59.152343-27.023437-25.875-41.90625-60.722657-41.90625-98.125 0-6.941407.53125-13.902344 1.5625-20.710938 6.089844-7.953125 13.777344-14.570312 22.65625-19.425781l13.414063-7.335938c8.886718-4.859374 14.195312-13.8125 14.195312-23.941406 0-9.816406-4.996094-18.515625-13.390625-23.46875 25.261719-25.910156 60.132813-40.761718 96.671875-40.953125h.738282c29.433593 0 57.421874 9.25 80.980468 26.773438 3.324219 2.472656 8.019532 1.78125 10.492188-1.539063 2.472656-3.324218 1.78125-8.023437-1.539063-10.496094-26.386719-19.625-57.746093-29.898437-90.75-29.738281-41.953125.21875-81.933593 17.859375-110.183593 48.488281l-.628907-.34375c-12.144531-6.640624-22.070312-16.570312-28.710937-28.710937l-7.335938-13.414063c-4.859375-8.886718-13.808594-14.195312-23.941406-14.195312 0 0 .003906 0 0 0-10.128906 0-19.082031 5.308594-23.941406 14.195312l-7.332032 13.410157c-6.644531 12.144531-16.570312 22.070312-28.714843 28.714843l-13.410157 7.332032c-8.886718 4.863281-14.195312 13.8125-14.195312 23.941406 0 10.132812 5.308594 19.082031 14.195312 23.945312l13.410157 7.332032c12.140625 6.640625 22.070312 16.570312 28.710937 28.714844l7.335938 13.410156c4.859375 8.886718 13.8125 14.195312 23.941406 14.195312 8.296875 0 15.796875-3.5625 20.910156-9.730468 1.621094 39.074218 17.941406 75.273437 46.390625 102.507812 13.632813 13.054688 23.445313 30.179688 28.136719 48.886719-17.117188 3.019531-30.167969 17.992187-30.167969 35.964843 0 9.320313 3.515625 17.835938 9.28125 24.296876-5.914062 6.617187-9.28125 15.242187-9.28125 24.328124 0 19.898438 15.992188 36.121094 35.800781 36.515626 2.429688 36.800781 33.128907 66.003906 70.535157 66.003906 37.484375 0 68.230469-29.316406 70.554687-66.226563 18.210938-2.054687 32.410156-17.542969 32.410156-36.292969 0-9.117187-3.324218-17.691406-9.277343-24.332031 5.761719-6.460937 9.277343-14.972656 9.277343-24.292969 0-16.78125-11.378906-30.949218-26.824218-35.210937 4.707031-19.261719 14.484375-36.441406 28.574218-50.035156 29.742188-28.691407 46.121094-67.246094 46.121094-108.5625.003906-37.964844-14.152344-74.242188-39.851562-102.148438zm-264.472656 83.523438-7.332032 13.410156c-2.191406 4.003906-6.222656 6.394531-10.785156 6.394531s-8.59375-2.390625-10.78125-6.394531l-7.335938-13.410156c-8.019531-14.664063-20.007812-26.652344-34.671874-34.675781l-13.410157-7.332032c-4.003906-2.1875-6.394531-6.21875-6.394531-10.78125s2.390625-8.59375 6.394531-10.78125l13.410157-7.335937c14.664062-8.019531 26.652343-20.011719 34.671874-34.675781l7.335938-13.410157c2.1875-4.003906 6.21875-6.394531 10.78125-6.394531s8.59375 2.390625 10.785156 6.394531l7.332032 13.410157c8.019531 14.664062 20.011718 26.65625 34.675781 34.675781l13.410156 7.335937c4.003906 2.1875 6.394531 6.21875 6.394531 10.78125s-2.390625 8.59375-6.394531 10.78125l-13.410156 7.335938c-14.664063 8.019531-26.65625 20.007812-34.675781 34.671875zm180.796874 175.902343v-129.640624c2.070313-.613282 9.1875-5.535157 9.1875-5.535157v135.175781zm-50.492187-172.984374c7.179687 2.453124 15.074219 3.75 23.183594 3.75 8.113281 0 16.003906-1.296876 23.1875-3.75 0 0 9.921875 11.84375 11.277343 20.449218l-10.457031 8.039063c-1.054687.8125-2.53125.8125-3.585937 0l-10.375-7.976563c-5.917969-4.550781-14.183594-4.546875-20.097656 0l-10.371094 7.976563c-1.058594.808593-2.53125.8125-3.589844 0l-10.453125-8.039063c2.78125-9.328125 11.28125-20.449218 11.28125-20.449218zm10.878906 41.101562c.347657-.230469 11.398438-8.699219 11.398438-8.699219.53125-.410156 1.277343-.410156 1.808593.003907 0 0 11.054688 8.46875 11.40625 8.699218v131.878906h-24.613281zm12.304688-64.890625c8.742187 0 14.433593 10.765625 14.433593 10.765625-4.550781 1.160156-9.421874 1.769531-14.433593 1.769531-5.007813 0-9.878907-.609375-14.433594-1.769531 0 0 5.691406-10.765625 14.433594-10.765625zm-36.492188 61.597656s7.113281 4.921875 9.1875 5.535157v129.640624h-9.1875zm36.492188 307.851563c-29.125 0-53.089844-22.472656-55.496094-50.988282h110.992187c-2.40625 28.515626-26.367187 50.988282-55.496093 50.988282zm87.964843-136.144532c0 11.875-9.660156 21.53125-21.53125 21.53125h-108.90625c-4.140624 0-7.5 3.359376-7.5 7.5 0 4.144532 3.359376 7.5 7.5 7.5h108.90625c5.378907 0 10.484376-1.175781 15.085938-3.273437 4.121094 4.035156 6.445312 9.511719 6.445312 15.367187 0 11.871094-9.660156 21.53125-21.53125 21.53125h-136.238281c-11.871093 0-21.53125-9.660156-21.53125-21.53125 0-5.839843 2.359375-11.351562 6.449219-15.367187 4.601562 2.097656 9.707031 3.273437 15.082031 3.273437 4.144531 0 7.5-3.355468 7.5-7.5 0-4.140624-3.355469-7.5-7.5-7.5-11.871093 0-21.53125-9.65625-21.53125-21.53125 0-11.871093 9.660157-21.53125 21.53125-21.53125h136.238281c11.871094 0 21.53125 9.660157 21.53125 21.53125zm0 0"/><path d="m501.582031 289.695312-8.492187-4.644531c-7.226563-3.949219-13.132813-9.855469-17.082032-17.082031l-4.644531-8.492188c-3.515625-6.425781-10.25-10.417968-17.574219-10.417968-7.324218 0-14.054687 3.992187-17.570312 10.417968l-4.644531 8.492188c-3.953125 7.226562-9.859375 13.132812-17.085938 17.082031l-8.488281 4.644531c-6.425781 3.515626-10.417969 10.25-10.417969 17.570313 0 7.328125 3.992188 14.058594 10.417969 17.574219l8.492188 4.644531c7.222656 3.953125 13.128906 9.859375 17.082031 17.082031l4.644531 8.492188c3.515625 6.425781 10.25 10.417968 17.574219 10.417968s14.058593-3.992187 17.570312-10.417968l4.644531-8.492188c3.953126-7.222656 9.859376-13.128906 17.082032-17.082031l8.492187-4.644531c6.425781-3.515625 10.417969-10.246094 10.417969-17.574219 0-7.320313-3.992188-14.054687-10.417969-17.570313zm-7.199219 21.984376-8.488281 4.644531c-9.75 5.332031-17.71875 13.300781-23.046875 23.046875l-4.644531 8.488281c-1.292969 2.363281-3.515625 2.617187-4.414063 2.617187-.894531 0-3.117187-.253906-4.410156-2.617187l-4.644531-8.488281c-5.332031-9.746094-13.300781-17.714844-23.046875-23.046875l-8.492188-4.644531c-2.359374-1.292969-2.613281-3.515626-2.613281-4.414063 0-.894531.253907-3.117187 2.613281-4.410156l8.492188-4.644531c9.746094-5.332032 17.714844-13.300782 23.046875-23.046876l4.644531-8.488281c1.292969-2.363281 3.515625-2.617187 4.410156-2.617187.898438 0 3.121094.253906 4.414063 2.617187l4.644531 8.488281c5.328125 9.746094 13.296875 17.714844 23.046875 23.046876l8.488281 4.644531c2.363282 1.292969 2.617188 3.515625 2.617188 4.410156 0 .898437-.253906 3.121094-2.617188 4.414063zm0 0"/></svg>