<svg height="511pt" viewBox="-33 0 511 511.99989" width="511pt" xmlns="http://www.w3.org/2000/svg"><path d="m391.585938 299.839844-183.054688-63.101563 60.9375-176.777343c6.863281-19.914063 28.570312-30.492188 48.484375-23.628907l57.804687 19.929688c13.394532 4.613281 24.402344 14.363281 30.609376 27.097656l25.355468 52.03125c6.207032 12.734375 7.101563 27.414063 2.484375 40.808594zm0 0" fill="#81d9e7"/><path d="m227.617188 181.371094-19.085938 55.367187 183.054688 63.101563 33.898437-98.347656c-74.253906 10.9375-142.003906 4.179687-197.867187-20.121094zm0 0" fill="#3ccbde"/><path d="m431.722656 135.394531-25.355468-52.035156c-2.832032-5.804687-6.660157-10.992187-11.257813-15.351563l-17.035156 49.414063c-2.726563 7.910156 1.476562 16.535156 9.386719 19.261719l49.417968 17.035156c-.601562-6.308594-2.328125-12.519531-5.15625-18.324219zm0 0" fill="#b5e9f1"/><path d="m296.394531 251.519531-223.492187 42.515625-39.886719-209.667968c-4.359375-22.917969 10.6875-45.03125 33.605469-49.390626l140.496094-26.730468c22.917968-4.359375 45.03125 10.6875 49.394531 33.605468zm0 0" fill="#b5e9f1"/><path d="m72.902344 294.035156 223.492187-42.515625-9.859375-51.84375c-37.210937-7.496093-70.902344-21.085937-99.976562-40.785156-49.511719-33.550781-110.804688-28.433594-143.585938-22.191406zm0 0" fill="#81d9e7"/><path d="m8 208.257812v255.027344c0 22.761719 18.453125 41.214844 41.214844 41.214844h330.886718c22.761719 0 41.214844-18.453125 41.214844-41.214844v-182.050781c0-22.761719-18.453125-41.214844-41.214844-41.214844h-154.324218c-25.441406 0-49.839844-10.105469-67.828125-28.09375l-27.332031-27.335937c-11.238282-11.234375-26.476563-17.550782-42.367188-17.550782h-39.035156c-22.761719 0-41.214844 18.453126-41.214844 41.21875zm0 0" fill="#f9ee80"/><path d="m72.023438 463.285156v-255.027344c0-18.828124 12.660156-34.707031 29.90625-39.632812-4.441407-1.042969-9.046876-1.585938-13.679688-1.585938h-39.035156c-22.761719 0-41.214844 18.453126-41.214844 41.21875v255.027344c0 22.761719 18.453125 41.214844 41.214844 41.214844h64.023437c-22.761719 0-41.214843-18.453125-41.214843-41.214844zm0 0" fill="#eedb00"/><path d="m214.65625 394.761719c-15.519531 0-28.097656-12.578125-28.097656-28.097657v-20.429687c0-4.238281 3.433594-7.671875 7.671875-7.671875h40.859375c4.234375 0 7.667968 3.433594 7.667968 7.671875v20.429687c0 15.519532-12.578124 28.097657-28.101562 28.097657zm0 0" fill="#454545"/><path d="m150.636719 366.660156c0-13.179687-13.421875-23.867187-29.972657-23.867187-16.554687 0-29.972656 10.6875-29.972656 23.867187 0 13.183594 13.417969 23.871094 29.972656 23.871094 16.550782 0 29.972657-10.6875 29.972657-23.871094zm0 0" fill="#ffb3dd"/><path d="m338.625 366.660156c0-13.179687-13.417969-23.867187-29.972656-23.867187-16.550782 0-29.972656 10.6875-29.972656 23.867187 0 13.183594 13.421874 23.871094 29.972656 23.871094 16.554687 0 29.972656-10.6875 29.972656-23.871094zm0 0" fill="#ffb3dd"/><path d="m212.574219 70.570312c4.070312-.773437 6.742187-4.699218 5.96875-8.769531-.773438-4.070312-4.707031-6.742187-8.769531-5.96875l-128.148438 24.382813c-4.070312.773437-6.742188 4.699218-5.96875 8.765625.6875 3.597656 4.132812 6.757812 8.769531 5.96875zm0 0"/><path d="m218.019531 99.179688-128.152343 24.378906c-4.066407.773437-6.738282 4.699218-5.964844 8.769531.683594 3.59375 3.519531 6.859375 8.769531 5.964844l128.148437-24.378907c4.070313-.773437 6.742188-4.699218 5.96875-8.769531-.773437-4.070312-4.707031-6.742187-8.769531-5.964843zm0 0"/><path d="m302.816406 346.058594v-12.449219c0-4.140625-3.359375-7.5-7.5-7.5-4.144531 0-7.5 3.359375-7.5 7.5v12.449219c0 4.144531 3.355469 7.5 7.5 7.5 4.140625 0 7.5-3.355469 7.5-7.5zm0 0"/><path d="m141.5 346.058594v-12.449219c0-4.140625-3.355469-7.5-7.5-7.5-4.140625 0-7.5 3.359375-7.5 7.5v12.449219c0 4.144531 3.359375 7.5 7.5 7.5 4.144531 0 7.5-3.355469 7.5-7.5zm0 0"/><path d="m438.464844 132.105469-25.355469-52.03125c-7.128906-14.625-19.523437-25.601563-34.90625-30.90625l-57.804687-19.925781c-36.433594-10.78125-50.183594 12.765624-54.6875 20.839843l-1.832032-9.632812c-5.125-26.941407-31.222656-44.691407-58.164062-39.566407l-140.496094 26.726563c-41.882812 10.433594-42.054688 45.109375-39.570312 58.160156l14.207031 74.683594c-22.398438 4.375-39.355469 24.144531-39.355469 47.804687v158.402344c0 4.144532 3.355469 7.5 7.5 7.5s7.5-3.355468 7.5-7.5v-158.402344c0-18.59375 15.125-33.71875 33.714844-33.71875h39.035156c14 0 27.164062 5.453126 37.0625 15.355469l27.332031 27.332031c19.535157 19.535157 45.507813 30.292969 73.132813 30.292969h154.324218c18.589844 0 33.714844 15.125 33.714844 33.714844v182.050781c0 18.589844-15.125 33.714844-33.714844 33.714844h-330.886718c-18.589844 0-33.714844-15.125-33.714844-33.714844v-66.125c0-4.140625-3.355469-7.5-7.5-7.5s-7.5 3.359375-7.5 7.5v66.121094c0 26.863281 21.851562 48.71875 48.714844 48.71875h330.886718c26.863282 0 48.714844-21.855469 48.714844-48.714844v-182.050781c0-12.171875-4.496094-23.304687-11.902344-31.851563l24.382813-70.738281c5.300781-15.382812 4.296875-31.910156-2.832031-46.539062zm-11.953125 10.105469-36.605469-12.617188c-1.929688-.664062-3.488281-2.042969-4.382812-3.878906-.898438-1.839844-1.023438-3.914063-.355469-5.847656l12.617187-36.605469c.652344 1.097656 28.265625 57.757812 28.726563 58.949219zm-21.9375 96.929687c-7.195313-4.203125-15.554688-6.621094-24.472657-6.621094h-79.6875l-12.425781-65.324219c-.773437-4.070312-4.703125-6.742187-8.769531-5.964843-4.070312.773437-6.738281 4.699219-5.96875 8.769531l11.894531 62.519531h-59.367187c-20.257813 0-39.460938-6.78125-55.058594-19.246093l66.59375-12.667969c4.070312-.773438 6.742188-4.699219 5.96875-8.769531-.777344-4.070313-4.707031-6.742188-8.769531-5.964844l-77.304688 14.703125s-23.839843-23.714844-25.167969-24.855469l97.027344-18.457031c4.070313-.773438 6.742188-4.699219 5.96875-8.769531-.773437-4.070313-4.707031-6.742188-8.769531-5.96875l-113.539063 21.597656c-7.703124-2.996094-15.964843-4.582032-24.480468-4.582032h-33.292969l-14.566406-76.570312c-1.734375-9.117188-1.503907-33.445312 27.636719-40.625l140.496093-26.726562c18.8125-3.578126 37.042969 8.816406 40.621094 27.636718l18.585937 97.6875c.773438 4.070313 4.703126 6.742188 8.765626 5.964844 4.070312-.773438 6.742187-4.699219 5.96875-8.769531l-11.382813-59.832031 5.480469-15.898438c2.667968-7.738281 12.109375-26.164062 38.949218-18.980469l57.804688 19.925781c4.773438 1.644532 9.160156 4.023438 13.050781 7.015626l-15.378906 44.609374c-1.96875 5.722657-1.597656 11.867188 1.054687 17.304688 2.648438 5.441406 7.261719 9.523438 12.980469 11.492188l44.609375 15.378906c-.042968 4.90625-.867187 9.828125-2.515625 14.601562zm0 0"/><path d="m250.257812 366.664062v-20.429687c0-8.367187-6.804687-15.171875-15.167968-15.171875h-40.859375c-8.367188 0-15.171875 6.804688-15.171875 15.171875v20.429687c0 19.628907 15.96875 35.597657 35.601562 35.597657 19.625 0 35.597656-15.96875 35.597656-35.597657zm-56.199218 0s.074218-20.601562.171875-20.601562h40.855469c.09375 0 .171874 20.601562.171874 20.601562 0 11.359376-9.242187 20.601563-20.601562 20.601563s-20.597656-9.242187-20.597656-20.601563zm0 0"/></svg>