<svg height="511pt" viewBox="0 -81 511.9995 511" width="511pt" xmlns="http://www.w3.org/2000/svg"><path d="m462.257812 319.050781h-412.515624v-255.015625c0-30.949218 25.085937-56.035156 56.03125-56.035156h300.449218c30.949219 0 56.035156 25.085938 56.035156 56.035156zm0 0" fill="#889cb0"/><path d="m200.703125 8h-94.925781c-30.949219 0-56.035156 25.085938-56.035156 56.03125v255.019531h94.925781v-255.019531c0-30.945312 25.089843-56.03125 56.035156-56.03125zm0 0" fill="#6a829a"/><path d="m82.664062 286.128906v-222.097656c0-12.761719 10.347657-23.109375 23.113282-23.109375h300.445312c12.765625 0 23.113282 10.347656 23.113282 23.109375v222.097656zm0 0" fill="#5ad6ff"/><path d="m149.640625 40.917969h-43.863281c-12.746094 0-23.113282 10.371093-23.113282 23.113281v222.097656h62.003907v-222.097656c0-8.242188 1.777343-16.0625 4.972656-23.113281zm0 0" fill="#00c5fd"/><path d="m9.050781 297.648438 7.3125 17.050781c7 16.332031 23.460938 26.972656 41.722657 26.972656h395.828124c18.257813 0 34.722657-10.640625 41.722657-26.972656l7.308593-17.050781c5.546876-12.941407-4.273437-27.1875-18.742187-27.1875h-456.40625c-14.46875 0-24.292969 14.246093-18.746094 27.1875zm0 0" fill="#a7b6c5"/><path d="m74.773438 314.699219-7.308594-17.050781c-5.546875-12.941407 4.273437-27.1875 18.742187-27.1875h-58.410156c-14.46875 0-24.292969 14.246093-18.746094 27.1875l7.3125 17.050781c7 16.332031 23.460938 26.972656 41.722657 26.972656h58.410156c-18.257813 0-34.722656-10.640625-41.722656-26.972656zm0 0" fill="#889cb0"/><path d="m185.984375 270.460938 12.085937 21.875c4.679688 8.472656 13.597657 13.730468 23.277344 13.730468h69.304688c9.679687 0 18.59375-5.257812 23.277344-13.730468l12.085937-21.875zm0 0" fill="#6a829a"/><path d="m241.671875 292.335938-12.085937-21.875h-43.601563l12.085937 21.875c4.679688 8.472656 13.597657 13.734374 23.277344 13.734374h43.601563c-9.679688-.003906-18.59375-5.261718-23.277344-13.734374zm0 0" fill="#516980"/><path d="m406.222656 40.917969h-300.445312c-12.746094 0-23.113282 10.371093-23.113282 23.113281v26.929688h346.671876v-26.929688c0-12.742188-10.367188-23.113281-23.113282-23.113281zm0 0" fill="#b5e9f1"/><path d="m149.640625 40.917969h-43.863281c-12.746094 0-23.113282 10.371093-23.113282 23.113281v26.925781h62.003907v-26.925781c0-8.242188 1.777343-16.0625 4.972656-23.113281zm0 0" fill="#81d9e7"/><path d="m157.265625 236.992188h-25.195313c-9.882812 0-17.898437-8.011719-17.898437-17.898438v-87.949219c0-9.882812 8.015625-17.894531 17.898437-17.894531h25.195313c9.886719 0 17.898437 8.011719 17.898437 17.894531v87.949219c0 9.886719-8.015624 17.898438-17.898437 17.898438zm0 0" fill="#fcf5af"/><g fill="#f4e74d"><path d="m144.667969 113.25h-12.597657c-9.882812 0-17.898437 8.011719-17.898437 17.894531v12.597657h30.496094zm0 0"/><path d="m144.667969 143.742188h30.496093v30.492187h-30.496093zm0 0"/><path d="m114.171875 174.234375h30.496094v30.492187h-30.496094zm0 0"/></g><path d="m114.171875 204.726562v14.367188c0 9.886719 8.015625 17.898438 17.898437 17.898438h25.195313c9.882813 0 17.898437-8.011719 17.898437-17.898438v-14.367188zm0 0" fill="#b5e9f1"/><path d="m276.984375 222.234375 41.914063-51.316406c6.667968-8.160157 1.882812-20.472657-8.546876-21.996094l-56.925781-8.292969c-13.222656-1.925781-23.726562 10.933594-19.199219 23.503906l19.496094 54.121094c3.570313 9.914063 16.59375 12.144532 23.261719 3.980469zm0 0" fill="#fad989"/><path d="m376.257812 158.988281c0 25.261719-20.476562 45.742188-45.742187 45.742188-25.261719 0-45.738281-20.480469-45.738281-45.742188 0-25.265625 20.476562-45.742187 45.738281-45.742187 25.265625 0 45.742187 20.476562 45.742187 45.742187zm0 0" fill="#ffb3c2"/><path d="m310.351562 148.925781-23.550781-3.433593c-1.316406 4.265624-2.023437 8.796874-2.023437 13.496093 0 13.761719 6.078125 26.105469 15.695312 34.488281l18.429688-22.554687c6.664062-8.164063 1.878906-20.476563-8.550782-21.996094zm0 0" fill="#fcf5af"/><path d="m121.675781 65.941406c0 4.140625-3.359375 7.5-7.503906 7.5-4.140625 0-7.5-3.359375-7.5-7.5 0-4.144531 3.359375-7.503906 7.5-7.503906 4.144531 0 7.503906 3.359375 7.503906 7.503906zm0 0" fill="#ff5f7f"/><path d="m152.167969 65.941406c0 4.140625-3.355469 7.5-7.5 7.5-4.140625 0-7.5-3.359375-7.5-7.5 0-4.144531 3.359375-7.503906 7.5-7.503906 4.144531 0 7.5 3.359375 7.5 7.503906zm0 0" fill="#f4e74d"/><path d="m182.664062 65.941406c0 4.140625-3.359374 7.5-7.5 7.5-4.144531 0-7.5-3.359375-7.5-7.5 0-4.144531 3.355469-7.503906 7.5-7.503906 4.140626 0 7.5 3.359375 7.5 7.503906zm0 0" fill="#29ce69"/><path d="m507.574219 275.414062c-5.140625-7.796874-13.878907-12.453124-23.371094-12.453124h-14.445313v-198.929688c0-35.03125-28.5-63.53125-63.535156-63.53125h-300.445312c-35.035156 0-63.535156 28.5-63.535156 63.53125v198.929688h-14.445313c-9.492187 0-18.230469 4.65625-23.371094 12.453124-4.957031 7.519532-5.804687 16.933594-2.265625 25.1875l7.308594 17.054688c8.207031 19.144531 27.289062 31.519531 48.617188 31.519531h395.828124c21.324219 0 40.410157-12.371093 48.617188-31.519531l7.308594-17.054688c3.539062-8.253906 2.691406-17.667968-2.265625-25.1875zm-450.332031-211.382812c0-26.761719 21.773437-48.53125 48.535156-48.53125h300.445312c26.761719 0 48.535156 21.769531 48.535156 48.53125v198.929688h-17.921874v-198.929688c0-16.878906-13.734376-30.613281-30.613282-30.613281h-25.722656c-4.144531 0-7.5 3.359375-7.5 7.5 0 4.144531 3.355469 7.5 7.5 7.5h25.722656c8.609375 0 15.613282 7.003906 15.613282 15.613281v19.425781h-331.671876v-19.425781c0-8.609375 7.003907-15.613281 15.613282-15.613281h245.46875c4.140625 0 7.5-3.355469 7.5-7.5 0-4.140625-3.359375-7.5-7.5-7.5h-245.46875c-16.878906 0-30.613282 13.734375-30.613282 30.613281v172.960938c0 4.140624 3.355469 7.5 7.5 7.5 4.140626 0 7.5-3.359376 7.5-7.5v-138.535157h331.671876v164.503907h-364.59375zm256.058593 213.929688-5.9375 10.746093c-3.359375 6.082031-9.761719 9.859375-16.710937 9.859375h-69.304688c-6.949218 0-13.351562-3.777344-16.714844-9.859375l-5.9375-10.746093zm182.75 16.730468-7.308593 17.050782c-5.839844 13.628906-19.511719 22.429687-34.828126 22.429687h-395.828124c-15.320313 0-28.992188-8.800781-34.832032-22.429687l-7.308594-17.050782c-1.566406-3.65625-1.203124-7.675781 1.003907-11.019531 2.359375-3.574219 6.414062-5.710937 10.847656-5.710937h153.761719l9.945312 18c6 10.859374 17.4375 17.605468 29.84375 17.605468h69.304688c12.40625 0 23.84375-6.746094 29.84375-17.605468l9.945312-18h153.765625c4.433594 0 8.488281 2.136718 10.84375 5.710937 2.207031 3.34375 2.570313 7.363281 1 11.019531zm0 0"/><path d="m157.265625 105.75h-25.195313c-14.003906 0-25.398437 11.390625-25.398437 25.394531v87.949219c0 14.003906 11.394531 25.398438 25.398437 25.398438h25.195313c14.003906 0 25.398437-11.394532 25.398437-25.398438v-87.949219c0-14.003906-11.394531-25.394531-25.398437-25.394531zm10.398437 30.492188h-15.496093v-15.492188c18.566406 0 15.496093 15.492188 15.496093 15.492188zm-30.496093 45.492187v15.492187h-15.492188v-15.492187zm-15.492188-15v-15.492187h15.492188v15.492187zm30.492188 15h15.492187v15.492187h-15.492187zm0-15v-15.492187h15.492187v15.492187zm-15-45.984375v15.492188h-15.492188s-2.964843-15.492188 15.492188-15.492188zm20.097656 108.742188h-25.195313c-5.730468 0-10.394531-4.664063-10.394531-10.398438v-6.867188h45.988281v6.867188c0 5.734375-4.667968 10.398438-10.398437 10.398438zm0 0"/><path d="m246.664062 220.796875c2.605469 7.230469 8.683594 12.332031 16.261719 13.617187 8.21875 1.394532 15.792969-2.445312 19.867188-7.433593l18.96875-23.222657c8.300781 5.351563 18.167969 8.46875 28.757812 8.46875 29.355469 0 53.242188-23.882812 53.242188-53.238281s-23.886719-53.238281-53.242188-53.238281c-21.601562 0-40.222656 12.933594-48.566406 31.457031l-27.445313-4c-8.835937-1.285156-17.496093 2.074219-23.148437 8.996094-5.652344 6.917969-7.21875 16.070313-4.191406 24.476563zm45.957032-66.875 16.648437 2.425781c3.15625.457032 4.390625 2.8125 4.773438 3.800782.386719.988281 1.0625 3.558593-.953125 6.027343l-13.007813 15.925781c-11.085937-11.863281-7.679687-26.523437-7.460937-28.179687zm37.894531-33.171875c21.089844 0 38.242187 17.152344 38.242187 38.238281 0 21.082031-17.15625 38.238281-38.242187 38.238281-6.988281 0-13.542969-1.894531-19.1875-5.183593l13.378906-16.378907c4.863281-5.953124 6.105469-13.785156 3.320313-20.949218-2.78125-7.164063-8.988282-12.105469-16.59375-13.210938l-13.796875-2.011718c6.671875-11.210938 18.910156-18.742188 32.878906-18.742188zm-87.539063 30.941406c1.988282-2.433594 5.238282-4.207031 9.367188-3.640625l25.4375 3.707031c-.324219 2.367188-4.210938 24.953126 12.628906 42.183594l-19.234375 23.550782c-2.019531 2.46875-4.667969 2.316406-5.71875 2.140624-1.046875-.179687-3.597656-.921874-4.675781-3.921874l-19.496094-54.117188c-1.246094-3.453125-.628906-7.0625 1.691406-9.902344zm0 0"/></svg>