<svg height="511pt" viewBox="1 -49 511.99875 511" width="511pt" xmlns="http://www.w3.org/2000/svg"><path d="m256 139.226562c-74.570312 0-142.441406 28.664063-193.207031 75.574219-33.648438 31.09375-33.648438 84.582031 0 115.675781 50.765625 46.910157 118.636719 75.574219 193.207031 75.574219s142.441406-28.664062 193.203125-75.574219c33.652344-31.09375 33.652344-84.582031 0-115.675781-50.761719-46.910156-118.632813-75.574219-193.203125-75.574219zm0 0" fill="#b5e9f1"/><path d="m355.960938 268.527344c0-53.8125-43.625-97.433594-97.4375-97.433594-53.816407 0-97.441407 43.621094-97.441407 97.433594 0 53.808594 43.625 97.433594 97.441407 97.433594 53.8125 0 97.4375-43.625 97.4375-97.433594zm0 0" fill="#73da8c"/><path d="m300.269531 268.527344c0 23.054687-18.691406 41.746094-41.746093 41.746094-23.054688 0-41.746094-18.691407-41.746094-41.746094 0-23.058594 18.691406-41.746094 41.746094-41.746094 23.054687 0 41.746093 18.6875 41.746093 41.746094zm0 0" fill="#6a829a"/><g fill="#889cb0"><path d="m256 109.449219c-11.921875 0-21.585938-9.664063-21.585938-21.582031v-58.28125c0-11.921876 9.664063-21.585938 21.585938-21.585938s21.585938 9.664062 21.585938 21.585938v58.28125c0 11.917968-9.664063 21.582031-21.585938 21.582031zm0 0"/><path d="m144.621094 130.425781c-11.015625 4.5625-23.640625-.667969-28.203125-11.683593l-14.921875-36.015626c-4.558594-11.015624.667968-23.640624 11.683594-28.203124 11.015624-4.5625 23.640624.667968 28.203124 11.679687l14.921876 36.019531c4.5625 11.011719-.667969 23.640625-11.683594 28.203125zm0 0"/><path d="m59.066406 181.175781c-8.429687 8.429688-22.097656 8.429688-30.527344 0l-14.730468-14.730469c-8.429688-8.429687-8.429688-22.097656 0-30.527343 8.429687-8.425781 22.097656-8.425781 30.527344 0l14.730468 14.730469c8.429688 8.429687 8.429688 22.097656 0 30.527343zm0 0"/><path d="m452.933594 181.175781c8.429687 8.429688 22.097656 8.429688 30.527344 0l14.730468-14.730469c8.429688-8.429687 8.429688-22.097656 0-30.527343-8.429687-8.425781-22.097656-8.425781-30.527344 0l-14.730468 14.730469c-8.429688 8.429687-8.429688 22.097656 0 30.527343zm0 0"/><path d="m367.378906 130.425781c11.015625 4.5625 23.640625-.667969 28.203125-11.683593l14.917969-36.015626c4.566406-11.015624-.667969-23.640624-11.679688-28.203124-11.015624-4.5625-23.640624.667968-28.203124 11.679687l-14.921876 36.019531c-4.5625 11.011719.667969 23.640625 11.683594 28.203125zm0 0"/></g><path d="m118.066406 268.523438c-2.988281-89.574219 70.53125-120.742188 73.589844-122-48.996094 11.320312-93.164062 35.289062-128.863281 68.277343-33.648438 31.09375-33.648438 84.582031 0 115.675781 35.710937 32.996094 79.894531 56.972657 128.914062 68.285157-2.257812-1.261719-70.636719-40.265625-73.640625-130.238281zm0 0" fill="#81d9e7"/><path d="m256 413.550781c-73.742188 0-144.164062-27.546875-198.296875-77.566406-17.570313-16.234375-27.644531-39.324219-27.644531-63.347656 0-24.019531 10.078125-47.109375 27.644531-63.34375 54.132813-50.023438 124.554687-77.570313 198.296875-77.570313 54.351562 0 107.398438 15.027344 153.410156 43.460938 3.523438 2.175781 4.617188 6.796875 2.4375 10.320312-2.179687 3.527344-6.800781 4.617188-10.324218 2.441406-43.640626-26.96875-93.960938-41.222656-145.523438-41.222656-69.957031 0-136.765625 26.132813-188.113281 73.585938-14.507813 13.40625-22.828125 32.476562-22.828125 52.328125 0 19.855469 8.320312 38.925781 22.828125 52.332031 51.347656 47.449219 118.15625 73.582031 188.113281 73.582031s136.765625-26.132812 188.113281-73.582031c14.507813-13.40625 22.828125-32.480469 22.828125-52.332031 0-19.851563-8.320312-38.921875-22.828125-52.328125-6.339843-5.859375-13.03125-11.484375-19.886719-16.730469-3.289062-2.515625-3.917968-7.222656-1.402343-10.511719 2.515625-3.292968 7.222656-3.921875 10.515625-1.402344 7.222656 5.523438 14.273437 11.453126 20.957031 17.628907 17.566406 16.234375 27.644531 39.324219 27.644531 63.34375 0 24.023437-10.078125 47.113281-27.648437 63.347656-54.128907 50.019531-124.550781 77.566406-198.292969 77.566406zm0 0"/><path d="m258.523438 373.460938c-16.824219 0-32.898438-3.863282-47.777344-11.484376-3.683594-1.886718-5.144532-6.40625-3.253906-10.09375 1.886718-3.683593 6.40625-5.144531 10.09375-3.257812 12.738281 6.523438 26.515624 9.832031 40.9375 9.832031 49.59375 0 89.9375-40.34375 89.9375-89.933593 0-49.589844-40.347657-89.933594-89.9375-89.933594-49.589844 0-89.9375 40.34375-89.9375 89.933594 0 24.023437 9.355468 46.609374 26.34375 63.597656 2.929687 2.929687 2.929687 7.675781.003906 10.605468-2.929688 2.929688-7.679688 2.929688-10.609375 0-19.820313-19.816406-30.738281-46.171874-30.738281-74.203124 0-57.859376 47.074218-104.933594 104.9375-104.933594 57.863281 0 104.9375 47.074218 104.9375 104.933594 0 57.863281-47.074219 104.9375-104.9375 104.9375zm0 0"/><path d="m258.523438 317.769531c-27.15625 0-49.246094-22.089843-49.246094-49.242187s22.089844-49.246094 49.246094-49.246094 49.246093 22.09375 49.246093 49.246094-22.09375 49.242187-49.246093 49.242187zm0-83.488281c-18.882813 0-34.246094 15.363281-34.246094 34.246094 0 18.882812 15.363281 34.242187 34.246094 34.242187 18.882812 0 34.246093-15.359375 34.246093-34.242187 0-18.882813-15.363281-34.246094-34.246093-34.246094zm0 0"/><path d="m256 116.949219c-16.039062 0-29.085938-13.046875-29.085938-29.082031v-58.285157c0-16.035156 13.046876-29.082031 29.085938-29.082031s29.085938 13.046875 29.085938 29.082031v58.285157c0 16.035156-13.046876 29.082031-29.085938 29.082031zm0-101.449219c-7.765625 0-14.085938 6.316406-14.085938 14.082031v58.285157c0 7.765624 6.320313 14.082031 14.085938 14.082031s14.085938-6.316407 14.085938-14.082031v-58.285157c0-7.765625-6.320313-14.082031-14.085938-14.082031zm0 0"/><path d="m109.488281 121.613281-4.179687-10.09375c-1.585938-3.824219.230468-8.214843 4.058594-9.796875 3.828124-1.585937 8.214843.230469 9.800781 4.058594l4.179687 10.09375c2.972656 7.171875 11.230469 10.589844 18.402344 7.621094 7.175781-2.972656 10.597656-11.230469 7.625-18.402344l-14.921875-36.019531c-2.972656-7.175781-11.226563-10.59375-18.402344-7.621094-10.023437 4.148437-9.0625 14.925781-7.625 18.402344 1.585938 3.824219-.230469 8.214843-4.058593 9.796875-3.824219 1.585937-8.214844-.230469-9.800782-4.058594-2.972656-7.175781-5.207031-29.003906 15.742188-38 14.738281-6.328125 31.867187.921875 38.003906 15.738281l14.921875 36.019531c6.136719 14.816407-.707031 32.421876-15.742187 38-18.589844 6.902344-33.367188-4.550781-38.003907-15.738281zm0 0"/><path d="m23.238281 186.476562-14.734375-14.726562c-11.339844-11.339844-11.339844-29.792969 0-41.132812 16.5625-16.558594 35.644532-5.492188 41.136719 0l14.730469 14.730468c5.492187 5.492188 15.75 25.378906 0 41.132813-15.753906 15.75-34.222656 6.910156-41.132813-.003907zm-4.125-45.253906c-5.492187 5.492188-5.492187 14.429688 0 19.917969l14.730469 14.730469c2.660156 2.664062 11.609375 8.3125 19.921875.003906 8.308594-8.3125 2.660156-17.261719 0-19.921875l-14.734375-14.730469c-2.660156-2.660156-11.863281-8.054687-19.917969 0zm0 0"/><path d="m447.628906 186.476562c-11.34375-11.339843-11.339844-29.789062 0-41.128906l14.730469-14.730468c11.339844-11.339844 29.792969-11.339844 41.132813 0 11.339843 11.339843 11.339843 29.792968 0 41.132812l-14.726563 14.730469c-11 10.996093-29.796875 11.339843-41.136719-.003907zm10.605469-10.605468c5.492187 5.492187 14.429687 5.492187 19.921875 0l14.730469-14.730469c5.492187-5.488281 5.492187-14.425781 0-19.917969-5.492188-5.492187-14.429688-5.492187-19.921875 0l-14.730469 14.730469c-5.492187 5.492187-5.488281 14.425781 0 19.917969zm0 0"/><path d="m364.507812 137.351562c-14.570312-4.667968-21.878906-23.183593-15.742187-38l14.921875-36.019531c2.972656-7.175781 14.136719-25.226562 38.003906-15.738281 24.707032 9.824219 18.714844 30.824219 15.742188 38l-14.921875 36.019531c-8.402344 18.796875-23.433594 20.410157-38.003907 15.738281zm5.738282-13.855468c7.175781 2.976562 15.433594-.445313 18.40625-7.621094l14.921875-36.019531c1.4375-3.476563 3.125-14.171875-7.625-18.402344-10.753907-4.234375-16.964844 4.144531-18.402344 7.621094l-14.921875 36.019531c-2.972656 7.175781.449219 15.429688 7.621094 18.402344zm0 0"/></svg>