<?xml version="1.0" encoding="iso-8859-1"?>
<!-- Generator: Adobe Illustrator 16.0.0, SVG Export Plug-In . SVG Version: 6.00 Build 0)  -->
<!DOCTYPE svg PUBLIC "-//W3C//DTD SVG 1.1//EN" "http://www.w3.org/Graphics/SVG/1.1/DTD/svg11.dtd">
<svg version="1.1" id="Capa_1" xmlns="http://www.w3.org/2000/svg" xmlns:xlink="http://www.w3.org/1999/xlink" x="0px" y="0px"
	 width="705.199px" height="705.199px" viewBox="0 0 705.199 705.199" style="enable-background:new 0 0 705.199 705.199;"
	 xml:space="preserve">
<g>
	<g>
		<path d="M184.088,437.906l-12.45-3.307c0.875-2.529,1.07-5.253,0.583-7.49c-3.891-20.912-15.952-36.378-32.585-48.828
			c-5.544-4.669-15.757-12.937-22.08-14.104l-17.8,41.242c0,0,38.324,16.243,24.512,40.561c0,0-10.797,20.427-45.813-1.07
			l-20.426,36.962c0,0,11.867,19.064,41.047,22.858c17.119,3.307,33.363,0,49.315-5.253c2.237-0.875,3.599-1.653,4.377-3.307
			l19.551,1.945L184.088,437.906z"/>
		<polygon points="216.575,446.466 190.994,439.852 179.905,498.31 206.167,501.131 		"/>
		<polygon points="489.314,451.719 499.528,506.286 525.985,503.854 514.702,445.104 		"/>
		<path d="M568.199,234.422l36.67-19.259c0,0-8.268-19.551-21.788-43.576c8.56-3.599,14.104-6.906,14.104-15.465
			c0-7.198-0.876-11.283,1.069-15.466c2.724,1.945,6.03,3.307,9.63,3.307c8.852,0,15.952-7.198,15.952-15.952
			c0-8.754-7.198-15.952-15.952-15.952c-8.852,0-15.952,7.198-15.952,15.952c0,0.583,0,1.07,0,1.654
			c-4.961,6.614-2.724,16.536-2.724,22.372c0,6.614-6.614,7.684-12.158,9.338v-0.292c-17.119-28.402-45.813-44.938-45.813-44.938
			l-22.858,24.22c0,0,20.719,22.858,35.893,44.938C559.056,207.479,568.199,234.422,568.199,234.422z"/>
		<path d="M342.635,81.419c35.017-2.724,78.885,2.724,78.885,2.724l4.377-17.119c0,0-23.442-12.645-64.003-11.867l-0.583-7.976
			c12.937-0.875,21.788-10.505,21.788-23.733S372.885-0.286,359.656,0.006c-12.645,0.292-23.149,10.796-23.149,23.441
			c0,9.921,6.906,19.064,15.757,22.372l0.875,9.629c-7.684,0.584-15.952,1.362-24.512,3.016
			c-26.457,4.96-43.868,17.897-43.868,17.897l6.322,17.897C291.083,94.355,307.618,84.435,342.635,81.419z"/>
		<path d="M647.084,485.957c-5.545-11.283-11.283-22.372-16.828-32.779c-7.684,3.015-14.298,6.614-20.912,8.268
			c-11.575,3.015-24.512-2.529-28.694-10.505c-4.377-8.56-1.069-19.551,8.56-28.402c1.362-1.07,2.529-2.529,4.183-3.308
			c4.377-2.724,8.852-5.252,13.812-8.268c-5.837-13.229-11.283-26.457-17.411-40.269c-2.724,1.361-4.669,2.528-6.322,3.307
			c-21.496,13.229-39.394,29.473-44.646,55.734c-0.584,2.724-0.875,6.614-0.584,9.338l-15.951,4.183l11.283,59.528l24.024-2.529
			c0.876,1.654,2.529,2.724,4.961,3.308c9.63,1.945,19.259,5.252,28.986,6.03c20.134,1.653,38.323-3.599,53.205-17.897
			C645.916,490.626,647.57,487.318,647.084,485.957z"/>
		<path d="M150.725,314.959c0.875,5.252,3.307,7.198,8.268,8.56c42.701,11.283,86.277,17.897,130.437,20.426
			c30.639,1.654,61.182,0.292,91.821-1.07c38.615-1.654,76.063-9.629,112.733-21.205c29.181-9.143,56.805-21.496,83.554-37.545
			c-11.867-47.661-45.521-116.625-89.584-154.364c-21.496-18.481-54.567-36.086-88.806-38.615
			c-38.032-3.016-75.869,0.875-112.539,11.867c-35.892,10.796-68.671,27.332-94.836,54.859
			C149.363,202.42,140.804,256.209,150.725,314.959z M454.299,157.774c26.748,0.875,40.561,19.551,40.561,43.868
			c0,24.22-18.189,43.868-40.561,43.868c-22.372,0-40.27-14.882-40.562-43.868C414.905,176.547,431.732,159.428,454.299,157.774z
			 M281.939,158.65c38.032,0,68.963,30.639,68.963,68.379s-30.834,68.379-68.963,68.379s-68.963-30.64-68.963-68.379
			C212.977,189.289,243.908,158.65,281.939,158.65z"/>
		<path d="M82.929,167.987c1.362,0,2.724-0.292,4.183-0.583c1.653,0.875,3.599,1.362,6.03,1.654
			c11.575,1.362,11.575-4.183,15.758,6.322c2.237,5.544,6.03,10.797,8.851,14.298c-6.614,11.867-15.952,33.071-15.952,57.583
			l38.323,15.952c0,0-0.875-27.332,2.529-40.269v-0.292l0,0c1.07-5.544,2.529-11.283,4.182-16.828
			c7.976-25.679,34.433-52.622,34.433-52.622l-15.368-13.326c0,0-22.566,11.867-42.506,40.269l0,0c0,0,0,0.292-0.292,0.583
			c-3.599-4.669-4.377-12.45-7.976-17.897c-4.377-6.323-5.836-2.724-16.536-3.599c-0.583,0-1.07,0-1.654-0.292
			c1.07-2.237,1.654-4.377,1.654-6.906c0-8.852-7.198-15.952-15.952-15.952c-8.754,0-15.952,7.198-15.952,15.952
			C66.686,160.79,74.078,167.987,82.929,167.987z"/>
		<path d="M177.766,678.353L315.4,689.928c1.945-10.213-12.645-24.512-12.645-24.512v-17.411l0,0
			c-36.962-16.827-84.332-17.896-84.332-17.896l3.016,12.45C190.994,648.589,177.766,678.353,177.766,678.353z"/>
		<path d="M172.513,701.794h142.789v-7.489l-137.634-12.158C174.458,684.48,172.513,701.794,172.513,701.794z"/>
		<path d="M403.816,644.504c25.679-12.937,85.984-19.064,85.984-19.064c0.584-0.584,0.584-8.56,0.292-14.883
			c2.724-1.069,5.545-2.236,8.268-3.307c5.253-2.237,7.198-4.377,5.545-10.505c-5.545-21.788-9.63-44.16-15.758-65.656
			c-2.237-7.684-4.377-15.174-6.906-22.566l10.797-1.069l-10.213-53.497l-17.411,4.377c-1.945-5.545-1.361-5.837,6.031-9.338
			c39.685-18.189,71.395-44.646,90.167-84.623c9.921-21.205,15.952-43.577,14.299-68.671
			c-135.397,72.27-275.171,76.063-419.906,34.433c10.894,60.695,43.673,102.326,98.824,126.545l-30.348-7.684l-10.213,53.497
			l17.119,1.653c-10.505,24.512-17.605,50.19-23.441,76.355c-2.529,12.159-2.529,12.159,8.268,17.897
			c1.07,0.584,2.237,1.07,3.307,1.653c-0.292,4.669-0.875,21.496,0,22.566c0,0,60.404,6.031,85.985,19.064
			c0,0,1.07-13.812,3.891-14.104c23.149,3.599,46.883,4.669,70.908,4.377c6.614-0.292,13.521-0.584,20.135-0.875
			C402.746,630.983,403.816,644.504,403.816,644.504z M329.99,596.453l-33.655-53.206l20.426-62.543l77.231-9.921l35.892,44.646
			l-15.951,71.395L329.99,596.453z"/>
		<path d="M406.054,651.118v17.605c0,0-14.591,14.59-12.646,24.512l137.635-11.575c0,0-12.937-29.765-43.576-36.087l3.016-12.45
			C490.385,633.123,443.016,634.582,406.054,651.118z"/>
		<path d="M530.945,685.551l-137.634,12.158v7.49h142.789C535.906,705.102,534.253,687.788,530.945,685.551z"/>
		<polygon points="354.793,530.895 333.297,534.202 331.352,520.098 356.155,512.705 351.973,501.909 316.956,511.538 
			328.531,576.124 345.066,571.163 339.036,546.068 358.101,540.815 		"/>
		<path d="M386.989,501.325H372.69l-4.183,68.963h17.119v-12.45c0,0,27.819,4.377,27.527-26.749
			C413.543,530.895,416.559,501.131,386.989,501.325z M381.834,542.956v-25.679l17.119,1.069l3.891,24.512h-21.01V542.956z"/>
	</g>
</g>
<g>
</g>
<g>
</g>
<g>
</g>
<g>
</g>
<g>
</g>
<g>
</g>
<g>
</g>
<g>
</g>
<g>
</g>
<g>
</g>
<g>
</g>
<g>
</g>
<g>
</g>
<g>
</g>
<g>
</g>
</svg>
